<svg xmlns="http://www.w3.org/2000/svg" viewBox="0 0 64 64"><g><path d="M0,64v-64h64v64z" fill="none"></path><g fill="#64748B"><path d="m60.94,42.66l-9-25c-.14-.4-.52-.66-.94-.66h-9.46c.3-.95.46-1.96.46-3,0-5.51-4.49-10-10-10s-10,4.49-10,10c0,1.04.16,2.05.46,3h-9.46c-.42,0-.8.26-.94.66L3.06,42.66c-.04.11-.06.22-.06.34v16c0,.55.45,1,1,1h56c.55,0,1-.45,1-1v-16c0-.12-.02-.23-.06-.34Zm-48.94-8.83l-2.94,8.17h-3.63l6.58-18.27v10.1Zm1.7,1.17h36.59l2.52,7h-13.04c-.92,0-1.72.62-1.94,1.52l-.43,1.73c-.11.45-.51.76-.97.76h-8.88c-.46,0-.86-.31-.97-.76l-.43-1.73c-.22-.89-1.02-1.52-1.94-1.52h-13.04l2.52-7Zm41.24,7l-2.94-8.17v-10.1l6.58,18.27h-3.63ZM32,6c4.41,0,8,3.59,8,8,0,3.7-2.51,6.9-6.11,7.78-.29.07-.53.26-.66.52l-1.24,2.47-1.24-2.47c-.13-.26-.37-.45-.66-.52-3.6-.88-6.11-4.07-6.11-7.78,0-4.41,3.59-8,8-8Zm-2.82,17.6l1.93,3.85c.17.34.51.55.89.55s.72-.21.89-.55l1.93-3.85c2.53-.74,4.58-2.42,5.84-4.6h9.34v14H14v-14h9.34c1.25,2.18,3.31,3.86,5.84,4.6ZM5,58v-14h19.22l.43,1.73c.33,1.34,1.53,2.27,2.91,2.27h8.88c1.38,0,2.58-.93,2.91-2.27l.43-1.73h19.22v14H5ZM27.76,16.83l2.83-2.83-2.83-2.83c-.39-.39-.39-1.02,0-1.41.39-.39,1.02-.39,1.41,0l2.83,2.83,2.83-2.83c.39-.39,1.02-.39,1.41,0,.39.39.39,1.02,0,1.41l-2.83,2.83,2.83,2.83c.39.39.39,1.02,0,1.41-.2.2-.45.29-.71.29s-.51-.1-.71-.29l-2.83-2.83-2.83,2.83c-.2.2-.45.29-.71.29s-.51-.1-.71-.29c-.39-.39-.39-1.02,0-1.41Z"></path></g></g></svg>